<svg xmlns="http://www.w3.org/2000/svg" xmlns:xlink="http://www.w3.org/1999/xlink" xmlns:lucid="lucid" width="1220" height="440"><g transform="translate(0 0)" lucid:page-tab-id="enf2SmSxZrj-"><g filter="url(#a)"><path d="M20 32c0-6.63 5.37-12 12-12h56c6.63 0 12 5.37 12 12v356c0 6.63-5.37 12-12 12H32c-6.63 0-12-5.37-12-12z" stroke="#3a414a" fill="#fff"/><use xlink:href="#b" transform="matrix(-1.8369701987210297e-16,-1,1,-1.8369701987210297e-16,25.00000000000003,395.00000000000006) translate(78.24444444444444 41.731944444444444)"/><use xlink:href="#c" transform="matrix(-1.8369701987210297e-16,-1,1,-1.8369701987210297e-16,25.00000000000003,395.00000000000006) translate(184.8222222222222 41.731944444444444)"/></g><g filter="url(#d)"><path d="M120 32c0-6.63 5.37-12 12-12h276c6.63 0 12 5.37 12 12v56c0 6.63-5.37 12-12 12H132c-6.63 0-12-5.37-12-12z" stroke="#3a414a" fill="#fff"/><use xlink:href="#e" transform="matrix(1,0,0,1,124.99999999999997,25) translate(105.64444444444445 41.731944444444444)"/></g><g filter="url(#d)"><path d="M120 132c0-6.63 5.37-12 12-12h276c6.63 0 12 5.37 12 12v56c0 6.63-5.37 12-12 12H132c-6.63 0-12-5.37-12-12z" stroke="#3a414a" fill="#fff"/><use xlink:href="#f" transform="matrix(1,0,0,1,124.99999999999997,125) translate(100.92222222222222 41.731944444444444)"/></g><g filter="url(#d)"><path d="M120 232c0-6.63 5.37-12 12-12h276c6.63 0 12 5.37 12 12v56c0 6.63-5.37 12-12 12H132c-6.63 0-12-5.37-12-12z" stroke="#3a414a" fill="#fff"/><use xlink:href="#g" transform="matrix(1,0,0,1,124.99999999999997,225) translate(96.58888888888889 41.731944444444444)"/></g><g filter="url(#d)"><path d="M120 332c0-6.63 5.37-12 12-12h276c6.63 0 12 5.37 12 12v56c0 6.63-5.37 12-12 12H132c-6.63 0-12-5.37-12-12z" stroke="#3a414a" fill="#fff"/><use xlink:href="#h" transform="matrix(1,0,0,1,124.99999999999997,325) translate(96.58888888888889 41.731944444444444)"/></g><path d="M440 32c0-6.63 5.37-12 12-12h716c6.63 0 12 5.37 12 12v56c0 6.63-5.37 12-12 12H452c-6.63 0-12-5.37-12-12z" stroke="#1071e5" fill="#fff" filter="url(#i)"/><path d="M460 46c0-3.3 2.7-6 6-6h148c3.3 0 6 2.7 6 6v28c0 3.3-2.7 6-6 6H466c-3.3 0-6-2.7-6-6z" fill="#fff"/><path d="M476.07 40h1m5.04 0h10.08m5.03 0h1.02m5.03 0h10.07m5.03 0h1m5.04 0h10.06m5.04 0h1m5.04 0h10.07m5.04 0h1m5.04 0h10.07m5.03 0h1m5.04 0h10.07m5.03 0h1m5.04 0H614l3.03.82 2.15 2.15L620 46v6.67m0 6.66v1.34m0 6.66V74l-.82 3.03-2.15 2.15L614 80h-5.03m-5.04 0h-1m-5.04 0H587.8m-5.03 0h-1.02m-5.03 0h-10.07m-5.03 0h-1m-5.04 0h-10.06m-5.04 0h-1m-5.04 0H524.4m-5.04 0h-1m-5.04 0h-10.07m-5.03 0h-1m-5.04 0H482.1m-5.03 0h-1m-5.04 0H466l-3.03-.82-2.15-2.15L460 74v-6.67m0-6.66v-1.34m0-6.66V46l.82-3.03 2.15-2.15L466 40h5.03" stroke="#3a414a" fill="none"/><use xlink:href="#j" transform="matrix(1,0,0,1,465,45) translate(52.544444444444444 23.919444444444444)"/><path d="M640 46c0-3.3 2.7-6 6-6h148c3.3 0 6 2.7 6 6v28c0 3.3-2.7 6-6 6H646c-3.3 0-6-2.7-6-6z" fill="#fff"/><path d="M656.07 40h1m5.04 0h10.08m5.03 0h1.02m5.03 0h10.07m5.03 0h1m5.04 0h10.06m5.04 0h1m5.04 0h10.07m5.04 0h1m5.04 0h10.07m5.03 0h1m5.04 0h10.07m5.03 0h1m5.04 0H794l3.03.82 2.15 2.15L800 46v6.67m0 6.66v1.34m0 6.66V74l-.82 3.03-2.15 2.15L794 80h-5.03m-5.04 0h-1m-5.04 0H767.8m-5.03 0h-1.02m-5.03 0h-10.07m-5.03 0h-1m-5.04 0h-10.06m-5.04 0h-1m-5.04 0H704.4m-5.04 0h-1m-5.04 0h-10.07m-5.03 0h-1m-5.04 0H662.1m-5.03 0h-1m-5.04 0H646l-3.03-.82-2.15-2.15L640 74v-6.67m0-6.66v-1.34m0-6.66V46l.82-3.03 2.15-2.15L646 40h5.03" stroke="#3a414a" fill="none"/><use xlink:href="#k" transform="matrix(1,0,0,1,645,45) translate(52.544444444444444 23.919444444444444)"/><path d="M820 46c0-3.3 2.7-6 6-6h148c3.3 0 6 2.7 6 6v28c0 3.3-2.7 6-6 6H826c-3.3 0-6-2.7-6-6z" fill="#fff"/><path d="M836.07 40h1m5.04 0h10.08m5.03 0h1.02m5.03 0h10.07m5.03 0h1m5.04 0h10.06m5.04 0h1m5.04 0h10.07m5.04 0h1m5.04 0h10.07m5.03 0h1m5.04 0h10.07m5.03 0h1m5.04 0H974l3.03.82 2.15 2.15L980 46v6.67m0 6.66v1.34m0 6.66V74l-.82 3.03-2.15 2.15L974 80h-5.03m-5.04 0h-1m-5.04 0H947.8m-5.03 0h-1.02m-5.03 0h-10.07m-5.03 0h-1m-5.04 0h-10.06m-5.04 0h-1m-5.04 0H884.4m-5.04 0h-1m-5.04 0h-10.07m-5.03 0h-1m-5.04 0H842.1m-5.03 0h-1m-5.04 0H826l-3.03-.82-2.15-2.15L820 74v-6.67m0-6.66v-1.34m0-6.66V46l.82-3.03 2.15-2.15L826 40h5.03" stroke="#3a414a" fill="none"/><use xlink:href="#l" transform="matrix(1,0,0,1,825,45) translate(52.544444444444444 23.919444444444444)"/><path d="M440 132c0-6.63 5.37-12 12-12h716c6.63 0 12 5.37 12 12v56c0 6.63-5.37 12-12 12H452c-6.63 0-12-5.37-12-12z" stroke="#1071e5" fill="#fff" filter="url(#i)"/><path d="M440 232c0-6.63 5.37-12 12-12h716c6.63 0 12 5.37 12 12v56c0 6.63-5.37 12-12 12H452c-6.63 0-12-5.37-12-12zM440 332c0-6.63 5.37-12 12-12h716c6.63 0 12 5.37 12 12v56c0 6.63-5.37 12-12 12H452c-6.63 0-12-5.37-12-12z" stroke="#1071e5" fill="#fff" filter="url(#m)"/><path d="M460 246c0-3.3 2.7-6 6-6h148c3.3 0 6 2.7 6 6v28c0 3.3-2.7 6-6 6H466c-3.3 0-6-2.7-6-6z" stroke="#3a414a" fill="#6f7681"/><use xlink:href="#n" transform="matrix(1,0,0,1,465,245) translate(52.544444444444444 23.919444444444444)"/><path d="M640 246c0-3.3 2.7-6 6-6h148c3.3 0 6 2.7 6 6v28c0 3.3-2.7 6-6 6H646c-3.3 0-6-2.7-6-6z" stroke="#3a414a" fill="#6f7681"/><use xlink:href="#o" transform="matrix(1,0,0,1,645,245) translate(52.544444444444444 23.919444444444444)"/><path d="M640 346c0-3.3 2.7-6 6-6h148c3.3 0 6 2.7 6 6v28c0 3.3-2.7 6-6 6H646c-3.3 0-6-2.7-6-6z" stroke="#3a414a" fill="#6f7681"/><use xlink:href="#o" transform="matrix(1,0,0,1,645,345) translate(52.544444444444444 23.919444444444444)"/><path d="M720 239V96.88" stroke="#3a414a" fill="none"/><path d="M720.5 239.5h-1v-.5h1z" stroke="#3a414a" stroke-width=".05" fill="#3a414a"/><path d="M720 82.12l4.64 14.26h-9.28z" stroke="#3a414a" fill="#3a414a"/><path d="M820 346c0-3.3 2.7-6 6-6h148c3.3 0 6 2.7 6 6v28c0 3.3-2.7 6-6 6H826c-3.3 0-6-2.7-6-6z" stroke="#3a414a" fill="#6f7681"/><use xlink:href="#p" transform="matrix(1,0,0,1,825,345) translate(52.544444444444444 23.919444444444444)"/><path d="M900 339V96.88" stroke="#3a414a" fill="none"/><path d="M900.5 339.5h-1v-.5h1z" stroke="#3a414a" stroke-width=".05" fill="#3a414a"/><path d="M900 82.12l4.64 14.26h-9.28z" stroke="#3a414a" fill="#3a414a"/><path d="M460 146c0-3.3 2.7-6 6-6h148c3.3 0 6 2.7 6 6v28c0 3.3-2.7 6-6 6H466c-3.3 0-6-2.7-6-6z" stroke="#3a414a" fill="#008a0e"/><use xlink:href="#n" transform="matrix(1,0,0,1,465,145) translate(52.544444444444444 23.919444444444444)"/><path d="M540 139V96.88" stroke="#3a414a" fill="none"/><path d="M540.5 139.5h-1v-.5h1z" stroke="#3a414a" stroke-width=".05" fill="#3a414a"/><path d="M540 82.12l4.64 14.26h-9.28z" stroke="#3a414a" fill="#3a414a"/><defs><path fill="#3a414a" d="M404 17C175 17 49-126 49-354s126-371 355-371 355 143 355 371S633 17 404 17zm1-77c173 0 264-121 264-294s-91-294-264-294c-174 0-265 121-265 294S231-60 405-60" id="q"/><path fill="#3a414a" d="M293 0h-95L4-509h91L246-85h3l146-424h88" id="r"/><path fill="#3a414a" d="M288-523c162-3 241 129 226 299H136c6 100 61 171 167 170 70-1 110-20 156-50l38 55c-54 38-112 62-199 63C141 16 48-99 50-257c3-159 80-263 238-266zm145 233c-2-96-49-168-146-168-96 0-149 75-152 168h298" id="s"/><path fill="#3a414a" d="M353-447c-118-18-182 64-182 174V0H86c-3-170 7-349-7-509h81c5 22 3 54 9 81 32-70 98-104 189-92" id="t"/><path fill="#3a414a" d="M172-708V0H87v-708h85" id="u"/><path fill="#3a414a" d="M206 14C109 15 40-41 42-139c1-169 156-177 340-175 7-97-33-143-126-142-54 0-105 14-153 43l-30-57c57-35 120-53 188-53 141 0 204 63 206 202 1 110-5 220 7 321h-78c-5-29-7-52-7-69h-3c-38 54-89 83-180 83zm22-67c89-2 148-53 154-135v-66s-251-9-252 110c0 59 38 91 98 91" id="v"/><path fill="#3a414a" d="M245 124c-31 80-63 130-160 133-26 0-50-4-71-12l17-63C159 220 168 89 202 3L4-509h92c50 139 97 282 150 419l136-419h87" id="w"/><path fill="#3a414a" d="M520-635H179v242h302v72H179V0H90v-708h430v73" id="x"/><path fill="#3a414a" d="M519-192C526 49 168 67 30-66l45-56c53 42 105 63 193 64 90 1 164-42 161-131-3-108-85-124-177-151-113-33-191-67-197-195-9-210 320-235 451-122l-40 58c-51-32-98-52-175-53-81-1-152 34-149 111 4 95 69 103 160 131 125 38 213 72 217 218" id="y"/><g id="b"><use transform="matrix(0.022222222222222223,0,0,0.022222222222222223,0,0)" xlink:href="#q"/><use transform="matrix(0.022222222222222223,0,0,0.022222222222222223,17.977777777777778,0)" xlink:href="#r"/><use transform="matrix(0.022222222222222223,0,0,0.022222222222222223,28.666666666666668,0)" xlink:href="#s"/><use transform="matrix(0.022222222222222223,0,0,0.022222222222222223,41.22222222222222,0)" xlink:href="#t"/><use transform="matrix(0.022222222222222223,0,0,0.022222222222222223,49.31111111111111,0)" xlink:href="#u"/><use transform="matrix(0.022222222222222223,0,0,0.022222222222222223,55.044444444444444,0)" xlink:href="#v"/><use transform="matrix(0.022222222222222223,0,0,0.022222222222222223,66.60000000000001,0)" xlink:href="#w"/><use transform="matrix(0.022222222222222223,0,0,0.022222222222222223,77.13333333333334,0)" xlink:href="#x"/><use transform="matrix(0.022222222222222223,0,0,0.022222222222222223,88.42222222222222,0)" xlink:href="#y"/></g><path fill="#3a414a" d="M50-255c-6-191 150-312 344-253 29 10 54 23 77 40l-34 59c-39-29-84-43-135-43-113-1-166 83-166 197 0 112 54 199 165 197 46 0 92-14 137-43l31 60C418-4 360 14 295 14 131 13 55-96 50-255" id="z"/><path fill="#3a414a" d="M305-523c165 3 256 102 256 267 0 164-91 270-256 270C141 14 52-92 50-256c-2-160 95-269 255-267zm0 68c-116 0-167 83-167 199S190-54 305-54c116 0 169-86 169-202 0-117-53-199-169-199" id="A"/><path fill="#3a414a" d="M323-452c-91 0-152 70-152 160V0H86c-3-170 7-349-7-509h81c5 17 3 46 9 72 33-51 94-86 177-86 122 0 189 80 189 194V0h-85v-312c-1-82-40-140-127-140" id="B"/><path fill="#3a414a" d="M41-381c-4-162 252-177 353-88l-38 53c-39-27-82-41-128-41-98 0-143 107-54 139 97 35 229 46 229 174C403 35 133 53 25-45l39-53c42 28 78 41 142 45 80 4 134-58 99-129-26-31-59-35-113-51-89-25-148-50-151-148" id="C"/><path fill="#3a414a" d="M328 1C218 40 105-8 105-130v-314H15v-55l89-10v-125l86-30v155h135v65H190v307c-6 76 60 95 125 75" id="D"/><path fill="#3a414a" d="M270 14C144 14 79-74 79-197v-312h86v300c0 89 37 155 125 155 95 0 154-86 154-183v-272h85c3 170-7 349 7 509h-81c-5-20-3-53-9-81-37 63-95 95-176 95" id="E"/><g id="c"><use transform="matrix(0.022222222222222223,0,0,0.022222222222222223,0,0)" xlink:href="#z"/><use transform="matrix(0.022222222222222223,0,0,0.022222222222222223,10.822222222222223,0)" xlink:href="#A"/><use transform="matrix(0.022222222222222223,0,0,0.022222222222222223,24.400000000000002,0)" xlink:href="#B"/><use transform="matrix(0.022222222222222223,0,0,0.022222222222222223,38.044444444444444,0)" xlink:href="#C"/><use transform="matrix(0.022222222222222223,0,0,0.022222222222222223,47.86666666666667,0)" xlink:href="#D"/><use transform="matrix(0.022222222222222223,0,0,0.022222222222222223,55.800000000000004,0)" xlink:href="#t"/><use transform="matrix(0.022222222222222223,0,0,0.022222222222222223,63.88888888888888,0)" xlink:href="#E"/><use transform="matrix(0.022222222222222223,0,0,0.022222222222222223,77.55555555555556,0)" xlink:href="#z"/><use transform="matrix(0.022222222222222223,0,0,0.022222222222222223,89.17777777777778,0)" xlink:href="#D"/><use transform="matrix(0.022222222222222223,0,0,0.022222222222222223,97.11111111111111,0)" xlink:href="#C"/></g><filter id="a" filterUnits="objectBoundingBox" x="-.09" y="-.02" width="1.25" height="1.05"><feOffset result="offOut" in="SourceAlpha" dx="2.56" dy="3.07"/><feGaussianBlur result="blurOut" in="offOut" stdDeviation="5"/><feColorMatrix result="colorOut" in="blurOut" values="0 0 0 0 0.6627450980392157 0 0 0 0 0.6862745098039216 0 0 0 0 0.7215686274509804 0 0 0 1 0"/><feBlend in="SourceGraphic" in2="colorOut"/></filter><path fill="#3a414a" d="M315-453c-88 0-144 74-144 161V0H86c-3-170 7-349-7-509h81c5 17 3 46 9 72 30-48 90-86 168-86 89 0 140 43 168 103 32-60 90-104 179-103 122 1 187 78 187 197V0h-85v-314c-1-78-37-142-120-139-97 3-146 77-146 174V0h-85v-316c-1-77-39-137-120-137" id="F"/><path fill="#3a414a" d="M247 257c-129 0-227-40-227-153C20 28 64-4 125-36c-33-15-49-37-49-67 0-43 35-68 74-79-60-24-100-74-100-157 0-151 154-213 302-170h177v68l-113-12c32 23 55 66 54 122 0 115-87 172-209 172-52 0-107 9-107 49 0 27 32 41 97 42 94 1 163 14 205 38s63 59 63 107c0 132-124 180-272 180zM129-341c1 79 47 121 131 121 87 0 131-39 131-118-1-77-49-121-131-121-76 0-132 44-131 118zm121 534c101 0 185-23 185-109 0-54-41-66-99-78-36-7-85-10-148-10-49 23-85 46-85 104 0 62 49 93 147 93" id="G"/><path fill="#3a414a" d="M50-253c3-155 81-270 235-270 68 0 123 22 166 66v-251h85v595c0 37 2 74 7 113h-79c-6-29-4-58-9-76-38 60-99 90-182 90C125 14 47-103 50-253zM292-54c94 1 159-71 159-165v-160c-36-45-79-74-154-75-104-1-159 92-159 201 0 111 50 197 154 199" id="H"/><g id="e"><use transform="matrix(0.022222222222222223,0,0,0.022222222222222223,0,0)" xlink:href="#F"/><use transform="matrix(0.022222222222222223,0,0,0.022222222222222223,21.11111111111111,0)" xlink:href="#s"/><use transform="matrix(0.022222222222222223,0,0,0.022222222222222223,33.666666666666664,0)" xlink:href="#t"/><use transform="matrix(0.022222222222222223,0,0,0.022222222222222223,41.31111111111111,0)" xlink:href="#G"/><use transform="matrix(0.022222222222222223,0,0,0.022222222222222223,53.355555555555554,0)" xlink:href="#s"/><use transform="matrix(0.022222222222222223,0,0,0.022222222222222223,65.91111111111111,0)" xlink:href="#H"/></g><filter id="d" filterUnits="objectBoundingBox" x="-.02" y="-.09" width="1.07" height="1.25"><feOffset result="offOut" in="SourceAlpha" dx="2.56" dy="3.07"/><feGaussianBlur result="blurOut" in="offOut" stdDeviation="5"/><feColorMatrix result="colorOut" in="blurOut" values="0 0 0 0 0.6627450980392157 0 0 0 0 0.6862745098039216 0 0 0 0 0.7215686274509804 0 0 0 1 0"/><feBlend in="SourceGraphic" in2="colorOut"/></filter><path fill="#3a414a" d="M349-523c153 3 224 114 224 268 0 156-81 269-235 269-65 0-120-21-167-63v293H86v-639c0-37-2-75-7-114h81c5 21 3 52 9 78 33-55 92-94 180-92zM320-54c111 1 165-88 165-201 0-111-49-200-153-200-99 0-161 67-161 165v169c42 40 76 65 149 67" id="I"/><path fill="#3a414a" d="M172 0H87v-509h85V0zm-42-631c-37 0-55-19-56-52 0-36 19-54 56-54s55 18 55 54c-1 33-19 52-55 52" id="J"/><g id="f"><use transform="matrix(0.022222222222222223,0,0,0.022222222222222223,0,0)" xlink:href="#E"/><use transform="matrix(0.022222222222222223,0,0,0.022222222222222223,13.666666666666668,0)" xlink:href="#I"/><use transform="matrix(0.022222222222222223,0,0,0.022222222222222223,27.48888888888889,0)" xlink:href="#I"/><use transform="matrix(0.022222222222222223,0,0,0.022222222222222223,41.31111111111112,0)" xlink:href="#s"/><use transform="matrix(0.022222222222222223,0,0,0.022222222222222223,53.86666666666668,0)" xlink:href="#t"/><use transform="matrix(0.022222222222222223,0,0,0.022222222222222223,61.53333333333334,0)" xlink:href="#H"/><use transform="matrix(0.022222222222222223,0,0,0.022222222222222223,75.33333333333334,0)" xlink:href="#J"/><use transform="matrix(0.022222222222222223,0,0,0.022222222222222223,81.06666666666668,0)" xlink:href="#t"/></g><path fill="#3a414a" d="M613 0h-95c-45-139-86-282-134-418L254 0h-94L17-509h89c36 138 67 281 106 417l129-417h92c44 139 85 281 132 417l105-417h86" id="K"/><path fill="#3a414a" d="M539-74V0H105v-73h192v-544l-191 99-35-64 236-126h78v634h154" id="L"/><g id="g"><use transform="matrix(0.022222222222222223,0,0,0.022222222222222223,0,0)" xlink:href="#u"/><use transform="matrix(0.022222222222222223,0,0,0.022222222222222223,5.733333333333333,0)" xlink:href="#A"/><use transform="matrix(0.022222222222222223,0,0,0.022222222222222223,19.266666666666666,0)" xlink:href="#K"/><use transform="matrix(0.022222222222222223,0,0,0.022222222222222223,36.42222222222222,0)" xlink:href="#s"/><use transform="matrix(0.022222222222222223,0,0,0.022222222222222223,48.97777777777777,0)" xlink:href="#t"/><use transform="matrix(0.022222222222222223,0,0,0.022222222222222223,56.64444444444444,0)" xlink:href="#H"/><use transform="matrix(0.022222222222222223,0,0,0.022222222222222223,70.44444444444444,0)" xlink:href="#J"/><use transform="matrix(0.022222222222222223,0,0,0.022222222222222223,76.17777777777778,0)" xlink:href="#t"/><use transform="matrix(0.022222222222222223,0,0,0.022222222222222223,84.26666666666667,0)" xlink:href="#L"/></g><path fill="#3a414a" d="M292-724c139 0 240 70 240 202 0 127-52 174-130 252-46 46-122 111-224 196h377V0H61v-69c115-99 199-171 247-219 77-77 128-111 134-226 4-85-67-139-157-137-89 2-132 36-184 84l-53-46c66-67 122-111 244-111" id="M"/><g id="h"><use transform="matrix(0.022222222222222223,0,0,0.022222222222222223,0,0)" xlink:href="#u"/><use transform="matrix(0.022222222222222223,0,0,0.022222222222222223,5.733333333333333,0)" xlink:href="#A"/><use transform="matrix(0.022222222222222223,0,0,0.022222222222222223,19.266666666666666,0)" xlink:href="#K"/><use transform="matrix(0.022222222222222223,0,0,0.022222222222222223,36.42222222222222,0)" xlink:href="#s"/><use transform="matrix(0.022222222222222223,0,0,0.022222222222222223,48.97777777777777,0)" xlink:href="#t"/><use transform="matrix(0.022222222222222223,0,0,0.022222222222222223,56.64444444444444,0)" xlink:href="#H"/><use transform="matrix(0.022222222222222223,0,0,0.022222222222222223,70.44444444444444,0)" xlink:href="#J"/><use transform="matrix(0.022222222222222223,0,0,0.022222222222222223,76.17777777777778,0)" xlink:href="#t"/><use transform="matrix(0.022222222222222223,0,0,0.022222222222222223,84.26666666666667,0)" xlink:href="#M"/></g><filter id="i" filterUnits="objectBoundingBox" x="-.01" y="-.09" width="1.03" height="1.25"><feOffset result="offOut" in="SourceAlpha" dx="2.56" dy="3.07"/><feGaussianBlur result="blurOut" in="offOut" stdDeviation="5"/><feColorMatrix result="colorOut" in="blurOut" values="0 0 0 0 0.6627450980392157 0 0 0 0 0.6862745098039216 0 0 0 0 0.7215686274509804 0 0 0 1 0"/><feBlend in="SourceGraphic" in2="colorOut"/></filter><path fill="#3a414a" d="M104-509c-11-136 44-213 171-213 33 0 62 4 89 13l-19 61c-85-20-162 3-156 97v42h128v65H189V0h-85v-444H15v-54" id="N"/><g id="j"><use transform="matrix(0.022222222222222223,0,0,0.022222222222222223,0,0)" xlink:href="#N"/><use transform="matrix(0.022222222222222223,0,0,0.022222222222222223,7.333333333333334,0)" xlink:href="#J"/><use transform="matrix(0.022222222222222223,0,0,0.022222222222222223,13.066666666666666,0)" xlink:href="#u"/><use transform="matrix(0.022222222222222223,0,0,0.022222222222222223,18.8,0)" xlink:href="#s"/><use transform="matrix(0.022222222222222223,0,0,0.022222222222222223,31.355555555555558,0)" xlink:href="#L"/></g><g id="k"><use transform="matrix(0.022222222222222223,0,0,0.022222222222222223,0,0)" xlink:href="#N"/><use transform="matrix(0.022222222222222223,0,0,0.022222222222222223,7.333333333333334,0)" xlink:href="#J"/><use transform="matrix(0.022222222222222223,0,0,0.022222222222222223,13.066666666666666,0)" xlink:href="#u"/><use transform="matrix(0.022222222222222223,0,0,0.022222222222222223,18.8,0)" xlink:href="#s"/><use transform="matrix(0.022222222222222223,0,0,0.022222222222222223,31.355555555555558,0)" xlink:href="#M"/></g><path fill="#3a414a" d="M289-725c133 0 224 61 229 187 4 99-58 146-131 167 87 11 156 67 153 171C535-53 431 17 277 17 157 17 93-19 29-81l47-52c58 50 103 75 201 76 100 1 173-50 173-146 0-134-124-136-259-130v-72c125 8 242-3 240-123-1-84-61-125-150-124-85 1-132 26-185 66l-46-50c65-55 129-89 239-89" id="O"/><g id="l"><use transform="matrix(0.022222222222222223,0,0,0.022222222222222223,0,0)" xlink:href="#N"/><use transform="matrix(0.022222222222222223,0,0,0.022222222222222223,7.333333333333334,0)" xlink:href="#J"/><use transform="matrix(0.022222222222222223,0,0,0.022222222222222223,13.066666666666666,0)" xlink:href="#u"/><use transform="matrix(0.022222222222222223,0,0,0.022222222222222223,18.8,0)" xlink:href="#s"/><use transform="matrix(0.022222222222222223,0,0,0.022222222222222223,31.355555555555558,0)" xlink:href="#O"/></g><filter id="m" filterUnits="objectBoundingBox" x="-.01" y="-.09" width="1.03" height="1.25"><feOffset result="offOut" in="SourceAlpha" dx="2.56" dy="3.07"/><feGaussianBlur result="blurOut" in="offOut" stdDeviation="5"/><feColorMatrix result="colorOut" in="blurOut" values="0 0 0 0 0.6627450980392157 0 0 0 0 0.6862745098039216 0 0 0 0 0.7215686274509804 0 0 0 1 0"/><feBlend in="SourceGraphic" in2="colorOut"/></filter><path fill="#f2f3f5" d="M104-509c-11-136 44-213 171-213 33 0 62 4 89 13l-19 61c-85-20-162 3-156 97v42h128v65H189V0h-85v-444H15v-54" id="P"/><path fill="#f2f3f5" d="M172 0H87v-509h85V0zm-42-631c-37 0-55-19-56-52 0-36 19-54 56-54s55 18 55 54c-1 33-19 52-55 52" id="Q"/><path fill="#f2f3f5" d="M172-708V0H87v-708h85" id="R"/><path fill="#f2f3f5" d="M288-523c162-3 241 129 226 299H136c6 100 61 171 167 170 70-1 110-20 156-50l38 55c-54 38-112 62-199 63C141 16 48-99 50-257c3-159 80-263 238-266zm145 233c-2-96-49-168-146-168-96 0-149 75-152 168h298" id="S"/><path fill="#f2f3f5" d="M539-74V0H105v-73h192v-544l-191 99-35-64 236-126h78v634h154" id="T"/><g id="n"><use transform="matrix(0.022222222222222223,0,0,0.022222222222222223,0,0)" xlink:href="#P"/><use transform="matrix(0.022222222222222223,0,0,0.022222222222222223,7.333333333333334,0)" xlink:href="#Q"/><use transform="matrix(0.022222222222222223,0,0,0.022222222222222223,13.066666666666666,0)" xlink:href="#R"/><use transform="matrix(0.022222222222222223,0,0,0.022222222222222223,18.8,0)" xlink:href="#S"/><use transform="matrix(0.022222222222222223,0,0,0.022222222222222223,31.355555555555558,0)" xlink:href="#T"/></g><path fill="#f2f3f5" d="M292-724c139 0 240 70 240 202 0 127-52 174-130 252-46 46-122 111-224 196h377V0H61v-69c115-99 199-171 247-219 77-77 128-111 134-226 4-85-67-139-157-137-89 2-132 36-184 84l-53-46c66-67 122-111 244-111" id="U"/><g id="o"><use transform="matrix(0.022222222222222223,0,0,0.022222222222222223,0,0)" xlink:href="#P"/><use transform="matrix(0.022222222222222223,0,0,0.022222222222222223,7.333333333333334,0)" xlink:href="#Q"/><use transform="matrix(0.022222222222222223,0,0,0.022222222222222223,13.066666666666666,0)" xlink:href="#R"/><use transform="matrix(0.022222222222222223,0,0,0.022222222222222223,18.8,0)" xlink:href="#S"/><use transform="matrix(0.022222222222222223,0,0,0.022222222222222223,31.355555555555558,0)" xlink:href="#U"/></g><path fill="#f2f3f5" d="M289-725c133 0 224 61 229 187 4 99-58 146-131 167 87 11 156 67 153 171C535-53 431 17 277 17 157 17 93-19 29-81l47-52c58 50 103 75 201 76 100 1 173-50 173-146 0-134-124-136-259-130v-72c125 8 242-3 240-123-1-84-61-125-150-124-85 1-132 26-185 66l-46-50c65-55 129-89 239-89" id="V"/><g id="p"><use transform="matrix(0.022222222222222223,0,0,0.022222222222222223,0,0)" xlink:href="#P"/><use transform="matrix(0.022222222222222223,0,0,0.022222222222222223,7.333333333333334,0)" xlink:href="#Q"/><use transform="matrix(0.022222222222222223,0,0,0.022222222222222223,13.066666666666666,0)" xlink:href="#R"/><use transform="matrix(0.022222222222222223,0,0,0.022222222222222223,18.8,0)" xlink:href="#S"/><use transform="matrix(0.022222222222222223,0,0,0.022222222222222223,31.355555555555558,0)" xlink:href="#V"/></g></defs></g></svg>